# xmcd
# 
# Track frame offsets:
#     150
#     6874
#     18347
#     27540
#     39891
#     52993
#     62589
#     73873
#     84662
#     92811
#     104125
#     114484
#     128058
#     137707
#     145349
#     156673
#     166724
#     178876
#     195907
#     205944
#     217368
#     234044
#     247153
#     261074
#     270780
# 
# Disc length: 3844
# 
# Revision: 2
# Processed by: cddbd v1.5.2PL0 Copyright (c) Steve Scherf et al.
# Submitted via: fre:ac v1.0.27
# 
DISCID=670f0219
DTITLE=Country Ballads - Country Ballads CD1
DYEAR=2002
DGENRE=Country
TTITLE0=Waylon Jennings - It's so easy
TTITLE1=Patsy Cline - Walking after midnight
TTITLE2=Chet Atkins - Yakety axe
TTITLE3=Lynn Anderson - Stand by your man
TTITLE4=Kenny Rogers - Ruby, don't take your love in town
TTITLE5=Jerry Lee Lewis - Hillbily Music
TTITLE6=Hank Locklin - Send me the pillow you dream on
TTITLE7=Carl belew - Am I so easy to forget
TTITLE8=Don Gibson - Blue blue day
TTITLE9=Donna Fargo - Wishfull thinking
TTITLE10=Faron Young - Live last, love hard, Die young
TTITLE11=Jimmy Dean - Big bad John
TTITLE12=Willie Nelson - Let's pretend
TTITLE13=Dolly Parton - Puppy love
TTITLE14=W Jennings and W Nelson - Mamma don't let your babies grow up to be cowboys
TTITLE15=Leroy Van Dyke - Walk on by
TTITLE16=Roy Drusky - Yes Mr. Peters
TTITLE17=Townes van Zandt - If I needed you
TTITLE18=Jimmy C. Newman - A fallen star
TTITLE19=Carl Smith - Loose talk
TTITLE20=Ray Price - You're the best thing that ever happened
TTITLE21=Patti Page - The Tennessee waltz
TTITLE22=Clint Black - A better man
TTITLE23=Merle Travis - Sixteen tons
TTITLE24=Tractors - Baby likes to rock it
EXTD=YEAR: 2002
EXTT0=
EXTT1=
EXTT2=
EXTT3=
EXTT4=
EXTT5=
EXTT6=
EXTT7=
EXTT8=
EXTT9=
EXTT10=
EXTT11=
EXTT12=
EXTT13=
EXTT14=
EXTT15=
EXTT16=
EXTT17=
EXTT18=
EXTT19=
EXTT20=
EXTT21=
EXTT22=
EXTT23=
EXTT24=
PLAYORDER=
